<svg width="142" height="99" viewBox="0 0 142 99" fill="none" xmlns="http://www.w3.org/2000/svg">
<path d="M41.0823 23.9937C36.0787 27.7701 35.5122 34.5675 35.3234 40.3264C35.1153 47.196 35.959 54.0569 37.8252 60.6714C37.9196 60.9547 38.3917 60.813 38.2973 60.5298C36.5554 54.3889 35.6971 48.0311 35.7482 41.6481C35.8426 35.7476 36.1731 28.2893 41.3183 24.3714C41.5543 24.2297 41.3183 23.8049 41.0823 23.9937Z" fill="white"/>
<path d="M39.5714 26.1179C42.6397 27.4869 42.4037 31.2632 42.3565 34.0482C42.4044 37.3041 42.1675 40.5578 41.6484 43.7723C40.6099 49.4368 38.3441 54.8181 37.8721 60.577C37.8721 60.6396 37.8969 60.6997 37.9412 60.7439C37.9855 60.7882 38.0455 60.8131 38.1081 60.8131C38.1707 60.8131 38.2307 60.7882 38.275 60.7439C38.3192 60.6997 38.3441 60.6396 38.3441 60.577C38.8634 54.1101 41.6484 48.0679 42.4509 41.6009C42.8133 38.3099 42.9395 34.9971 42.8285 31.688C42.7813 29.3278 42.1677 26.7788 39.8546 25.7403C39.5714 25.5987 39.3354 26.0235 39.5714 26.1179Z" fill="white"/>
<path d="M37.1638 30.3664C38.6743 31.4521 40.4681 32.113 42.3563 31.6409C42.3946 31.6479 42.434 31.6452 42.471 31.6332C42.508 31.6213 42.5415 31.6003 42.5685 31.5722C42.5954 31.5442 42.615 31.5099 42.6256 31.4724C42.6361 31.435 42.6372 31.3955 42.6287 31.3575C42.6203 31.3195 42.6026 31.2842 42.5772 31.2547C42.5518 31.2252 42.5195 31.2025 42.4832 31.1885C42.4469 31.1745 42.4077 31.1697 42.3691 31.1745C42.3304 31.1793 42.2936 31.1936 42.2619 31.2161C40.4681 31.6409 38.816 30.9801 37.3998 29.9416C37.3719 29.9261 37.3413 29.9162 37.3096 29.9126C37.2779 29.909 37.2457 29.9116 37.2151 29.9204C37.1844 29.9291 37.1557 29.9439 37.1307 29.9637C37.1057 29.9835 37.0849 30.0081 37.0694 30.036C37.0539 30.0639 37.044 30.0946 37.0404 30.1263C37.0368 30.158 37.0394 30.1901 37.0482 30.2208C37.0569 30.2515 37.0717 30.2801 37.0915 30.3051C37.1113 30.3301 37.1359 30.3509 37.1638 30.3664Z" fill="white"/>
<path d="M37.7775 28.9504C38.3857 29.5128 39.1145 29.9286 39.9081 30.1659C40.7018 30.4031 41.5392 30.4556 42.3563 30.3193C42.6395 30.2721 42.5451 29.8473 42.2147 29.8945C41.4786 29.994 40.7297 29.9316 40.0204 29.7114C39.311 29.4913 38.6583 29.1188 38.1079 28.62C37.8719 28.4312 37.5415 28.7616 37.7775 28.9504Z" fill="white"/>
<path d="M36.4557 33.4347C37.0694 34.1428 38.1551 34.19 39.052 34.3316C40.2511 34.5684 41.4923 34.4704 42.6395 34.0484C42.9227 33.954 42.7811 33.4819 42.4979 33.5763C41.6005 33.9381 40.6264 34.068 39.6656 33.954C38.8632 33.8596 37.3998 33.7652 36.7862 33.1043C36.7659 33.0772 36.74 33.0549 36.7103 33.0387C36.6806 33.0225 36.6478 33.0129 36.6141 33.0105C36.5804 33.0081 36.5465 33.013 36.5148 33.0248C36.4831 33.0366 36.4544 33.0551 36.4305 33.079C36.4065 33.1029 36.3881 33.1317 36.3762 33.1634C36.3644 33.1951 36.3595 33.2289 36.3619 33.2626C36.3643 33.2964 36.3739 33.3292 36.3901 33.3589C36.4063 33.3886 36.4287 33.4144 36.4557 33.4347Z" fill="white"/>
<path d="M36.1256 34.7092C36.8809 35.6533 38.1082 35.8893 39.2883 36.0309C40.4684 36.1725 41.9318 36.3613 42.687 35.7477C43.4423 35.134 42.5926 35.2284 42.3566 35.4172C42.1206 35.6061 39.7132 35.6061 38.9579 35.5116C38.2026 35.4172 37.0697 35.134 36.4561 34.3787C35.8424 33.6235 35.9368 34.4732 36.1256 34.7092Z" fill="white"/>
<path d="M35.7479 39.1937C37.7305 40.7987 40.2796 41.3651 42.3565 39.5714C42.5926 39.3826 42.2621 39.0521 42.0261 39.2409C40.1379 40.8459 37.8249 40.2794 36.0784 38.8161C35.8424 38.6273 35.5119 39.0049 35.7479 39.1937Z" fill="white"/>
<path d="M35.748 40.3735C37.1642 42.0257 40.7517 42.781 42.3094 41.0344C42.3365 41.0141 42.3588 40.9882 42.375 40.9586C42.3912 40.9289 42.4008 40.896 42.4032 40.8623C42.4056 40.8286 42.4008 40.7947 42.3889 40.763C42.3771 40.7314 42.3586 40.7026 42.3347 40.6787C42.3108 40.6548 42.282 40.6363 42.2503 40.6245C42.2187 40.6126 42.1848 40.6078 42.1511 40.6102C42.1173 40.6126 42.0845 40.6222 42.0548 40.6384C42.0251 40.6545 41.9993 40.6769 41.979 40.704C40.6573 42.2145 37.3058 41.5064 36.0785 40.0431C35.8896 39.8071 35.5592 40.1375 35.748 40.3735Z" fill="white"/>
<path d="M35.7006 44.2917C37.2111 45.4718 40.0906 46.0855 41.7427 44.9054C41.9787 44.7166 41.7427 44.3389 41.5067 44.4805C40.0906 45.519 37.3527 44.9998 36.031 43.9613C35.795 43.7725 35.4646 44.1029 35.7006 44.2917Z" fill="white"/>
<path d="M36.2199 51.4195C37.1168 52.458 38.4385 52.5524 39.713 52.3636C39.9962 52.3163 39.9018 51.8915 39.5714 51.8915C38.4857 52.0803 37.3056 51.9859 36.5503 51.089C36.53 51.062 36.5042 51.0396 36.4745 51.0234C36.4448 51.0072 36.412 50.9976 36.3782 50.9952C36.3445 50.9928 36.3107 50.9977 36.279 51.0095C36.2473 51.0214 36.2185 51.0398 36.1946 51.0638C36.1707 51.0877 36.1522 51.1164 36.1404 51.1481C36.1286 51.1798 36.1237 51.2136 36.1261 51.2474C36.1285 51.2811 36.1381 51.3139 36.1543 51.3436C36.1705 51.3733 36.1928 51.3992 36.2199 51.4195Z" fill="white"/>
<path d="M45.5664 24.7961C46.7937 26.3067 47.313 28.1004 47.6434 29.9414C48.0133 31.808 48.2186 33.7034 48.2571 35.6059C48.2571 39.5711 47.0298 43.3474 45.3776 46.8877C45.236 47.171 45.6608 47.407 45.8025 47.1238C47.5018 43.3946 48.8235 39.3823 48.7291 35.1811C48.6347 30.9799 48.2099 27.298 45.8969 24.4657C45.7081 24.2297 45.3776 24.5601 45.5664 24.7961Z" fill="white"/>
<path d="M44.1971 44.9999C45.2189 47.2273 45.5793 49.7013 45.2356 52.1277L45.7077 51.9861C44.8188 50.837 43.7119 49.8745 42.4506 49.1538C42.4063 49.1396 42.3588 49.1388 42.3141 49.1514C42.2694 49.1641 42.2294 49.1896 42.1992 49.2249C42.1689 49.2602 42.1498 49.3037 42.1441 49.3498C42.1384 49.3959 42.1465 49.4427 42.1673 49.4843C43.3002 51.6557 42.9226 54.0159 43.253 56.3761C43.5457 58.0627 44.2785 59.6422 45.3772 60.9549C46.6045 62.4182 48.1151 63.3151 49.6728 64.4008C51.2306 65.4865 52.3635 66.4306 51.6554 67.8939C51.4117 68.3041 51.037 68.6202 50.5918 68.7915C50.1465 68.9628 49.6565 68.9792 49.2008 68.838C48.8951 68.6961 48.6307 68.4785 48.4324 68.206C48.2342 67.9334 48.1087 67.6148 48.0679 67.2803C48.0983 66.8178 48.227 66.3672 48.4455 65.9585C48.5871 65.7225 48.2095 65.4393 48.0679 65.7225C47.9263 66.0058 47.2654 67.7995 47.8791 68.7436C48.4927 69.6877 49.8616 69.4517 50.7113 69.3101C51.561 69.1684 52.1274 68.4132 52.2218 67.4691C52.3163 66.525 51.6554 65.3449 50.7113 64.5896C49.7672 63.8344 48.1623 62.9847 46.9822 61.9462C45.8851 60.992 45.0006 59.818 44.3859 58.5003C43.0642 55.5736 44.1027 52.1749 42.545 49.2482L42.2145 49.5787C43.4115 50.2347 44.4569 51.1354 45.2828 52.2221C45.4244 52.4109 45.7077 52.3637 45.7077 52.1277C46.0354 49.6199 45.6595 47.0704 44.622 44.7638C44.4803 44.4806 44.1027 44.7166 44.1971 44.9999Z" fill="white"/>
<path d="M38.8161 56.3289C39.8074 58.8779 41.3652 61.899 43.5838 63.5984C44.2147 64.0557 44.9163 64.4065 45.6607 64.6369C46.4882 64.8152 47.2839 65.1176 48.021 65.5337L50.0035 66.8082C50.0306 66.7879 50.053 66.7621 50.0691 66.7324C50.0853 66.7027 50.095 66.6699 50.0974 66.6362C50.0997 66.6024 50.0949 66.5686 50.083 66.5369C50.0712 66.5052 50.0527 66.4764 50.0288 66.4525C50.0049 66.4286 49.9761 66.4101 49.9445 66.3983C49.9128 66.3865 49.8789 66.3816 49.8452 66.384C49.8115 66.3864 49.7786 66.396 49.7489 66.4122C49.7193 66.4284 49.6934 66.4508 49.6731 66.4778C49.2483 66.8554 48.8706 67.3747 49.2011 67.9412C49.3124 68.1556 49.5017 68.3191 49.7301 68.3981C49.9584 68.4772 50.2083 68.4657 50.4284 68.366C51.8917 67.6107 49.4843 65.817 48.8706 65.4865C47.9801 64.9197 47.0095 64.4901 45.9912 64.212C45.1672 64.0156 44.3947 63.6454 43.7254 63.1263C41.6956 61.3325 40.2323 58.6891 39.2882 56.2345C39.1938 55.9513 38.7217 56.0457 38.8161 56.3289Z" fill="white"/>
<path d="M60.4832 58.1698C59.9913 59.2231 59.2764 60.1571 58.388 60.9069C57.4996 61.6567 56.4589 62.2046 55.3379 62.5126C53.4497 63.0318 51.4671 62.7486 49.8622 64.0231C49.6262 64.2119 49.9566 64.5424 50.1926 64.3535C51.3255 63.4567 52.5528 63.5039 53.9218 63.315C54.9274 63.1481 55.9098 62.8629 56.8484 62.4654C58.6282 61.6354 60.0516 60.1951 60.8608 58.4058C61.0024 58.1698 60.5776 57.9338 60.4832 58.1698Z" fill="white"/>
<path d="M61.238 59.3971C61.1908 60.4828 61.1436 61.9933 60.2939 62.7958C59.4531 63.5464 58.4521 64.0953 57.3672 64.4008C55.4791 64.9672 53.4965 64.9672 51.5611 65.392C51.2779 65.4864 51.4195 65.9585 51.7027 65.8641C54.1101 65.2976 56.7536 65.392 59.0194 64.2591C59.7747 63.8343 60.7659 63.2679 61.1436 62.4654C61.5212 61.6629 61.6628 60.3884 61.71 59.3971C61.7572 58.4058 61.2852 59.1139 61.238 59.3971Z" fill="white"/>
<path d="M41.5068 23.9466C40.1851 22.3417 38.533 19.5566 39.3826 17.4325H38.9106C39.3354 18.707 39.9019 20.3119 41.2708 20.8312C42.6397 21.3504 42.8285 20.7368 42.7813 19.7455C42.7341 18.7542 41.3652 17.4325 40.3267 16.866C38.7383 15.9616 37.041 15.2636 35.2759 14.789V15.2139C36.091 14.7285 37.0304 14.4922 37.9782 14.5341C38.926 14.5761 39.8408 14.8944 40.6099 15.4499C40.7516 15.5443 40.8932 15.4027 40.9404 15.3083C41.554 13.7505 43.2534 13.4201 44.6223 14.081C45.2367 14.3685 45.7525 14.8309 46.1052 15.4103C46.4578 15.9897 46.6317 16.6603 46.6049 17.338C46.5919 19.5518 45.7692 21.6842 44.2919 23.333C44.2514 23.3906 44.2339 23.4611 44.2426 23.5309C44.2513 23.6007 44.2857 23.6648 44.3391 23.7106C44.776 24.0222 45.1724 24.3869 45.5192 24.7963C45.708 24.9851 46.0384 24.6547 45.8496 24.4187C45.4819 23.9813 45.0526 23.5997 44.5751 23.2858V23.6634C46.3689 21.6336 48.1154 17.7629 46.4633 15.1666C44.8111 12.5704 41.5068 12.4288 40.4683 15.1666L40.7988 15.025C39.9506 14.4449 38.9563 14.115 37.9296 14.0733C36.9028 14.0316 35.8851 14.2796 34.9926 14.789C34.851 14.9306 34.851 15.2139 35.087 15.2611C36.9299 15.7262 38.695 16.4577 40.3267 17.4325C40.7093 17.7054 41.0721 18.0051 41.4124 18.3293L41.8373 18.8958C42.4037 19.5566 42.1677 19.9815 41.1292 20.2647C40.0907 20.5479 39.5715 18.1405 39.2882 17.338C39.2882 17.2754 39.2634 17.2154 39.2191 17.1712C39.1748 17.1269 39.1148 17.102 39.0522 17.102C38.9896 17.102 38.9296 17.1269 38.8853 17.1712C38.8411 17.2154 38.8162 17.2754 38.8162 17.338C37.9193 19.6039 39.6187 22.5777 41.082 24.2771C41.2708 24.5131 41.6012 24.1355 41.4124 23.9466H41.5068Z" fill="white"/>
<path d="M58.0753 24.1352C56.612 25.0793 55.9039 27.2507 55.2431 28.7612C54.3364 30.6876 54.0242 32.8404 54.3462 34.945C54.5822 37.1164 54.8182 39.2878 55.2431 41.412C55.464 42.6105 55.7636 43.7931 56.1399 44.9523C56.3288 45.5659 56.5176 46.6988 57.0368 47.1237C57.5561 47.5485 57.2256 47.2181 57.32 47.1709C57.3817 47.142 57.433 47.0947 57.4668 47.0356C57.5006 46.9764 57.5153 46.9083 57.5089 46.8404C57.4617 46.6988 57.3672 46.6044 57.2728 46.6044H57.1784C57.1158 46.6044 57.0558 46.6293 57.0115 46.6736C56.9673 46.7178 56.9424 46.7778 56.9424 46.8404C56.9424 46.903 56.9673 46.9631 57.0115 47.0073C57.0558 47.0516 57.1158 47.0765 57.1784 47.0765C57.2728 47.0765 56.376 44.1026 56.2816 43.8194C56.1871 43.5361 55.8567 42.12 55.7151 41.3175C55.3165 39.3532 55.0328 37.3672 54.8654 35.3698C54.6294 33.2456 54.6294 31.4991 55.4319 29.5165C55.7772 28.6607 56.1712 27.8254 56.612 27.0147C57.0368 26.1178 57.4617 25.1265 58.3113 24.56C59.161 23.9936 58.3113 23.9936 58.0753 24.1352Z" fill="white"/>
<path d="M58.6892 43.7252C58.4059 44.4804 57.7923 44.9997 57.4619 45.7078C57.2305 46.4079 57.1188 47.1419 57.1314 47.8792C57.0185 49.5589 57.2432 51.2442 57.7923 52.8356C57.7923 52.8982 57.8172 52.9582 57.8614 53.0025C57.9057 53.0468 57.9657 53.0716 58.0283 53.0716C58.0909 53.0716 58.1509 53.0468 58.1952 53.0025C58.2395 52.9582 58.2643 52.8982 58.2643 52.8356C58.9424 51.0147 59.8464 49.2861 60.955 47.6903L60.5773 47.4543L60.2469 48.0208C60.2314 48.0487 60.2216 48.0793 60.2179 48.111C60.2143 48.1427 60.2169 48.1749 60.2257 48.2055C60.2344 48.2362 60.2492 48.2649 60.269 48.2899C60.2889 48.3149 60.3134 48.3357 60.3413 48.3512C60.3692 48.3667 60.3999 48.3765 60.4316 48.3802C60.4633 48.3838 60.4954 48.3812 60.5261 48.3724C60.5568 48.3637 60.5854 48.3489 60.6104 48.3291C60.6354 48.3093 60.6562 48.2847 60.6717 48.2568L60.955 47.6903C61.1438 47.4071 60.719 47.2183 60.5773 47.4543C59.4297 49.0751 58.4937 50.836 57.7923 52.694H58.2643C57.715 51.1516 57.4901 49.5125 57.6035 47.8792C57.6507 46.9351 57.6979 46.1326 58.2171 45.3301C58.5855 44.8792 58.9022 44.3883 59.1612 43.8668C59.2556 43.5836 58.8308 43.442 58.6892 43.7252Z" fill="white"/>
<path d="M59.1138 50.0976C59.9387 51.6182 60.3611 53.3243 60.3412 55.0541C60.3412 55.1167 60.366 55.1767 60.4103 55.221C60.4545 55.2652 60.5146 55.2901 60.5772 55.2901C60.6398 55.2901 60.6998 55.2652 60.7441 55.221C60.7883 55.1767 60.8132 55.1167 60.8132 55.0541C60.8181 53.2452 60.3805 51.4626 59.5387 49.8616C59.3971 49.5784 59.0194 49.8144 59.1138 50.0976Z" fill="white"/>
<path d="M62.3237 23.6161C62.2765 25.5987 64.0702 27.3453 64.7311 29.139C65.6752 31.6881 65.5808 34.4731 65.5808 37.1638C65.5808 43.1587 65.4864 49.1537 63.7398 54.9126H64.1646L64.0702 54.6293C64.0514 54.5667 64.0086 54.5142 63.951 54.4832C63.8935 54.4522 63.826 54.4453 63.7634 54.4641C63.7008 54.4829 63.6482 54.5258 63.6172 54.5833C63.5863 54.6409 63.5794 54.7084 63.5982 54.771L63.7398 55.0542C63.7591 55.0941 63.7893 55.1277 63.8269 55.1513C63.8644 55.1748 63.9079 55.1873 63.9522 55.1873C63.9966 55.1873 64.04 55.1748 64.0776 55.1513C64.1151 55.1277 64.1453 55.0941 64.1646 55.0542C65.9112 49.3897 66.0528 43.4891 66.0528 37.6358C66.0528 35.0396 66.1472 32.4433 65.4864 29.9415C65.1769 28.8445 64.7162 27.7959 64.1174 26.826C63.551 25.882 62.7485 24.7491 62.7957 23.6161C62.7957 23.5536 62.7708 23.4935 62.7266 23.4493C62.6823 23.405 62.6223 23.3801 62.5597 23.3801C62.4971 23.3801 62.4371 23.405 62.3928 23.4493C62.3485 23.4935 62.3237 23.5536 62.3237 23.6161Z" fill="white"/>
<path d="M64.1649 27.2981C62.3711 26.0707 60.3885 27.3453 59.6805 29.139C58.9724 30.9328 59.35 34.4731 59.6333 36.8805C60.4829 43.0171 62.2767 49.1064 63.7872 55.1014C63.7934 55.1324 63.8057 55.1618 63.8233 55.1881C63.8408 55.2143 63.8634 55.2369 63.8897 55.2544C63.916 55.2719 63.9455 55.2841 63.9765 55.2903C64.0075 55.2964 64.0395 55.2964 64.0704 55.2902C64.1014 55.284 64.1309 55.2717 64.1572 55.2541C64.1834 55.2366 64.206 55.214 64.2235 55.1877C64.241 55.1614 64.2532 55.1319 64.2594 55.1009C64.2655 55.0699 64.2655 55.0379 64.2593 55.0069C63.032 50.1921 61.7102 45.3773 60.7662 40.5625C60.2276 38.0925 59.896 35.582 59.7749 33.057C59.7277 31.7825 59.6805 30.5079 60.1525 29.3278C60.6245 28.1477 62.3711 26.6372 63.9288 27.6757C64.1649 27.8645 64.4009 27.4397 64.1649 27.2981Z" fill="white"/>
<path d="M35.7479 45.9911C37.1641 47.2656 39.7131 47.4544 41.3653 46.5575C41.6485 46.4159 41.4125 46.0383 41.1292 46.1799C40.3176 46.5518 39.4212 46.6998 38.533 46.6085C37.6449 46.5172 36.7974 46.1899 36.0784 45.6606C35.8424 45.4718 35.5119 45.8022 35.7479 45.9911Z" fill="white"/>
<path d="M63.551 14.5057C62.4653 13.42 60.9076 12.3815 59.3026 12.5231C58.5177 12.6425 57.7685 12.9327 57.1078 13.3731C56.4472 13.8135 55.8912 14.3935 55.4791 15.0722C54.6294 16.4411 54.9598 18.2348 55.3847 19.6982C55.8852 21.4565 56.7905 23.0731 58.0281 24.4186C58.2169 24.6546 58.5474 24.3242 58.3586 24.0882C56.612 22.1528 54.9598 19.0373 55.5263 16.3467C55.8095 14.8361 57.2257 13.6088 58.689 13.1368C60.1523 12.6647 62.0405 13.656 63.1734 14.8361C63.2172 14.8862 63.2791 14.9168 63.3455 14.9213C63.4119 14.9257 63.4773 14.9036 63.5274 14.8597C63.5775 14.8159 63.6081 14.754 63.6125 14.6876C63.617 14.6212 63.5948 14.5558 63.551 14.5057Z" fill="white"/>
<path d="M62.7958 23.6161C62.8902 22.2944 63.8815 21.6807 64.4951 20.595C64.9521 19.7688 65.2106 18.8477 65.2504 17.9044C65.2458 17.8617 65.2316 17.8207 65.2088 17.7844C65.186 17.748 65.1553 17.7173 65.1189 17.6946C65.0826 17.6719 65.0415 17.6577 64.9989 17.6531C64.9562 17.6486 64.9131 17.6538 64.8728 17.6683C64.4775 17.9778 64.1138 18.3257 63.7871 18.7068C63.6422 19.0213 63.4684 19.3215 63.2678 19.6037C62.607 19.5093 62.4182 19.3205 62.7014 18.9901C62.9846 18.6596 62.8902 18.7068 62.9846 18.518C63.4542 17.7103 64.0801 17.0042 64.8256 16.441C65.5625 15.9911 66.3562 15.6419 67.1858 15.4025C67.2484 15.4025 67.3084 15.3777 67.3527 15.3334C67.3969 15.2891 67.4218 15.2291 67.4218 15.1665C67.4218 15.1039 67.3969 15.0439 67.3527 14.9996C67.3084 14.9554 67.2484 14.9305 67.1858 14.9305C66.5792 14.7097 65.9425 14.5824 65.2976 14.5529L63.5038 14.7417C63.4094 14.4584 62.9374 14.5529 63.0318 14.8361C63.1262 15.1193 63.2206 15.2137 63.5038 15.2609C63.7871 15.3081 64.7784 15.0249 65.0616 15.0249C65.7401 15.0268 66.4124 15.1549 67.0442 15.4025V14.9305C65.8641 15.3553 64.6368 15.7802 63.7871 16.7242C62.9374 17.6683 61.9933 18.6596 61.9461 19.6981C61.8989 20.7366 62.0877 20.7366 62.7014 20.7366C62.8722 20.7001 63.0328 20.6261 63.1716 20.52C63.3104 20.4139 63.4239 20.2783 63.5038 20.123C64.0231 19.3677 64.3063 18.6596 65.1088 18.0932L64.7784 17.9044C64.684 19.5093 64.0231 20.5478 62.9846 21.7279C62.5529 22.2621 62.3194 22.9293 62.3237 23.6161C62.3237 23.6787 62.3486 23.7387 62.3929 23.783C62.4371 23.8272 62.4972 23.8521 62.5598 23.8521C62.6224 23.8521 62.6824 23.8272 62.7267 23.783C62.7709 23.7387 62.7958 23.6787 62.7958 23.6161Z" fill="white"/>
<path d="M59.7277 30.7913C61.2382 31.1689 64.1177 31.5937 65.2034 30.1304C65.3922 29.8944 64.9673 29.6584 64.7785 29.8944C64.5897 30.1304 62.9848 30.6025 62.2295 30.6497C61.4153 30.6561 60.6044 30.5448 59.8221 30.3192C59.7595 30.3067 59.6945 30.3196 59.6414 30.355C59.5882 30.3904 59.5514 30.4454 59.5389 30.508C59.5263 30.5706 59.5392 30.6356 59.5746 30.6888C59.61 30.7419 59.6651 30.7788 59.7277 30.7913Z" fill="white"/>
<path d="M59.3974 32.2074C61.0967 33.057 64.2594 33.2459 65.6756 31.7353C65.6973 31.7105 65.7139 31.6817 65.7244 31.6505C65.735 31.6193 65.7393 31.5863 65.7371 31.5534C65.7349 31.5205 65.7262 31.4884 65.7116 31.4589C65.697 31.4294 65.6768 31.403 65.652 31.3813C65.6272 31.3596 65.5983 31.343 65.5671 31.3324C65.5359 31.3219 65.5029 31.3176 65.4701 31.3198C65.4372 31.322 65.4051 31.3306 65.3755 31.3452C65.346 31.3598 65.3196 31.3801 65.2979 31.4049C64.0706 32.7738 61.144 32.5378 59.6806 31.7825C59.3974 31.6409 59.1614 32.0658 59.3974 32.2074Z" fill="white"/>
<path d="M59.6332 35.5586C61.7102 36.1722 63.9288 36.4082 65.7225 34.9449C65.9586 34.7561 65.6281 34.4257 65.3921 34.6145C63.74 35.9362 61.663 35.653 59.7276 35.0865C59.6966 35.0803 59.6647 35.0803 59.6337 35.0864C59.6027 35.0926 59.5732 35.1047 59.5469 35.1223C59.5206 35.1398 59.498 35.1623 59.4804 35.1886C59.4628 35.2149 59.4506 35.2443 59.4444 35.2753C59.4382 35.3063 59.4381 35.3383 59.4443 35.3693C59.4504 35.4003 59.4626 35.4298 59.4801 35.4561C59.4977 35.4824 59.5202 35.5049 59.5465 35.5225C59.5727 35.5401 59.6022 35.5524 59.6332 35.5586Z" fill="white"/>
<path d="M59.9167 37.0222C60.871 37.3578 61.8851 37.4893 62.8935 37.4079C63.9018 37.3266 64.8818 37.0344 65.77 36.5502C66.0532 36.4085 65.8172 35.9837 65.534 36.1253C64.7054 36.5836 63.7897 36.8625 62.8464 36.9438C61.903 37.0252 60.9531 36.9071 60.0583 36.5973C60.0088 36.5973 59.9605 36.6129 59.9203 36.6419C59.8801 36.6709 59.85 36.7117 59.8344 36.7587C59.8187 36.8057 59.8182 36.8565 59.833 36.9038C59.8478 36.951 59.877 36.9925 59.9167 37.0222Z" fill="white"/>
<path d="M60.3416 40.1378C61.9466 40.7514 64.5428 40.421 65.7701 39.1465C65.9589 38.9105 65.6285 38.58 65.4397 38.8161C64.354 39.9962 61.8994 40.2322 60.4833 39.6657C60.2 39.5713 60.0584 39.9962 60.3416 40.1378Z" fill="white"/>
<path d="M60.7186 41.6482C61.7571 42.0259 62.9844 41.7898 64.0229 41.5538C64.7499 41.4325 65.4059 41.0456 65.8638 40.4681C66.0527 40.1849 65.6278 39.9489 65.439 40.2321C65.2502 40.5153 64.2589 41.0346 63.5036 41.1762C62.7484 41.3178 61.7099 41.5066 60.8602 41.1762C60.7976 41.1574 60.7301 41.1643 60.6726 41.1952C60.615 41.2262 60.5721 41.2788 60.5534 41.3414C60.5346 41.404 60.5414 41.4715 60.5724 41.529C60.6034 41.5866 60.656 41.6294 60.7186 41.6482Z" fill="white"/>
<path d="M61.2852 44.6695C61.9461 45.1415 62.843 45.0943 63.5982 45.0943C63.9714 45.1351 64.3489 45.0974 64.7066 44.9836C65.0643 44.8698 65.3943 44.6824 65.6752 44.4334C65.864 44.2446 65.5336 43.9142 65.3448 44.103C65.156 44.2918 64.0231 44.6222 63.315 44.6222C62.6069 44.6222 62.0405 44.6695 61.5212 44.2918C61.002 43.9142 61.0492 44.5278 61.2852 44.6695Z" fill="white"/>
<path d="M61.7101 46.4632C62.843 46.7937 64.5423 46.9825 65.5808 46.1328C65.8168 45.944 65.4392 45.6135 65.2504 45.8023C65.0616 45.9912 62.7958 46.2744 61.8045 45.9912C61.5213 45.8968 61.4268 46.3688 61.7101 46.4632Z" fill="white"/>
<path d="M67.9413 15.1668C68.5222 15.1178 69.107 15.189 69.6592 15.3758C70.2114 15.5625 70.7193 15.861 71.1512 16.2525C71.2928 16.3469 71.5289 16.3469 71.5289 16.1581C71.7177 14.9308 72.8506 14.2699 74.0307 14.1283C75.2108 13.9867 76.3909 14.742 77.0046 15.9693C78.0903 18.0935 77.2878 20.5953 76.4853 22.6723C75.6828 24.7493 74.8804 25.5517 75.8245 27.2039C76.7685 28.856 78.6567 30.0833 80.0728 31.4051C80.1229 31.4489 80.1883 31.471 80.2547 31.4666C80.3211 31.4621 80.3831 31.4315 80.4269 31.3815C80.4707 31.3314 80.4928 31.2659 80.4884 31.1995C80.484 31.1332 80.4533 31.0712 80.4033 31.0274C78.7983 29.5641 74.9748 27.3927 76.1077 24.7965C77.2406 22.2002 78.0903 20.3593 77.9958 18.0462C77.9014 15.7332 76.9101 13.9395 74.8332 13.7035C72.7562 13.4674 71.34 14.2699 71.104 16.0165L71.4817 15.9221C71.0098 15.4819 70.451 15.1453 69.8413 14.9339C69.2316 14.7225 68.5844 14.6411 67.9413 14.6947C67.8787 14.6947 67.8187 14.7196 67.7744 14.7639C67.7302 14.8081 67.7053 14.8682 67.7053 14.9308C67.7053 14.9934 67.7302 15.0534 67.7744 15.0977C67.8187 15.1419 67.8787 15.1668 67.9413 15.1668Z" fill="white"/>
<path d="M69.2159 17.102C68.9955 17.9958 69.0748 18.9371 69.4415 19.7814C69.8083 20.6258 70.4421 21.3262 71.2457 21.7752V21.3976C69.4047 22.3417 71.1513 25.6932 71.9066 26.8733C73.5587 29.3279 76.0605 30.9329 78.5624 32.3962C78.7984 32.5378 79.0344 32.1602 78.7984 31.9714C76.863 30.8385 74.9276 29.6584 73.4171 28.0534C72.7247 27.302 72.1372 26.4605 71.6705 25.5516C71.2929 24.7019 70.3016 22.4361 71.4817 21.7752C71.6705 21.728 71.6705 21.492 71.4817 21.3976C70.7812 20.9824 70.2275 20.3592 69.8976 19.6147C69.5676 18.8703 69.4779 18.0415 69.6407 17.2436C69.7352 16.9132 69.2631 16.8188 69.2159 17.102Z" fill="white"/>
<path d="M67.9407 15.1666C69.0264 15.5443 69.9233 16.0163 70.4898 17.0548C70.9144 17.9506 71.2008 18.9055 71.3395 19.8871L71.6699 19.6038C70.7258 18.943 70.2065 17.9045 69.7345 16.9132C69.5929 16.63 69.2153 16.866 69.3097 17.1492C69.8761 18.2349 70.4426 19.2734 71.4339 20.0287C71.6227 20.1231 71.8115 19.9343 71.8115 19.7455C71.5755 18.5654 71.3395 17.338 70.6314 16.3467C69.9562 15.5647 69.0719 14.9915 68.0824 14.6946C68.0198 14.6758 67.9523 14.6827 67.8947 14.7137C67.8372 14.7446 67.7943 14.7972 67.7755 14.8598C67.7568 14.9224 67.7636 14.9899 67.7946 15.0474C67.8256 15.105 67.8782 15.1479 67.9407 15.1666Z" fill="white"/>
<path d="M71.1983 23.0025C72.2441 22.7396 73.209 22.2231 74.0076 21.4985C74.8063 20.774 75.414 19.8638 75.7772 18.8485C75.9188 18.5653 75.4467 18.4236 75.3523 18.7069C75.0059 19.6533 74.4335 20.5006 73.6848 21.1753C72.9361 21.8499 72.0339 22.3313 71.0567 22.5776C70.7735 22.6248 70.9151 23.0969 71.1983 23.0025Z" fill="white"/>
<path d="M71.2929 24.8435C72.9923 25.0795 74.5972 23.6162 75.2109 22.2001C75.3525 21.9168 74.9277 21.6808 74.8333 21.964C74.2668 23.1441 72.8979 24.6075 71.4346 24.3714C71.1041 24.3242 71.0097 24.7963 71.2929 24.8435Z" fill="white"/>
<path d="M78.6095 32.4906C80.1673 33.1987 83.1412 34.426 82.8107 36.503C82.6691 37.3999 81.961 38.4384 81.5834 39.288C81.239 39.981 80.9699 40.709 80.7809 41.4594C80.2145 44.1973 81.4418 46.8879 83.4244 48.7761C83.6132 49.0121 83.9436 48.6817 83.7548 48.4457C82.3387 47.0767 81.253 45.3302 81.1114 43.3004C80.9698 41.2706 81.961 39.6185 82.7635 37.8247C83.2356 36.7862 83.7076 35.7477 82.9051 34.7564C82.1027 33.7651 80.2145 32.7266 78.8456 32.113C78.5623 31.9714 78.3263 32.3962 78.6095 32.4906Z" fill="white"/>
<path d="M78.7512 32.2073C73.842 34.2843 70.16 39.1464 69.9712 44.5276C69.7824 49.9089 72.1426 55.5734 76.7214 57.8864C81.3002 60.1995 87.0119 59.869 90.9299 57.0368C94.8479 54.2045 96.2168 49.2953 95.3671 44.8109C94.8704 42.2026 93.7229 39.762 92.0313 37.7155C90.3396 35.669 88.1585 34.0828 85.6902 33.1042C85.407 33.0098 85.3126 33.4346 85.5958 33.5763C93.715 36.7861 99.0018 48.776 91.874 55.6679C88.4281 58.9722 83.094 59.4914 78.704 58.1225C73.5587 56.5175 71.0569 51.2779 70.5377 46.227C69.8768 40.4209 73.7003 34.8508 78.9872 32.6322C79.2704 32.4906 78.9872 32.0657 78.7512 32.2073Z" fill="white"/>
<path d="M80.167 31.4993C80.9617 31.9399 81.7813 32.3339 82.6216 32.6794C82.9048 32.7738 83.0465 32.3018 82.7632 32.2074C82.48 32.113 81.2055 31.4993 80.403 31.1217C79.6006 30.744 79.8838 31.3577 80.167 31.4993Z" fill="white"/>
<path d="M82.669 32.7268C83.7262 32.9764 84.7667 33.2917 85.7845 33.6709C86.0677 33.7653 86.1621 33.2932 85.8789 33.1988C85.5957 33.1044 83.8491 32.538 82.8106 32.2547C82.5274 32.2075 82.3858 32.6324 82.669 32.7268Z" fill="white"/>
<path d="M80.4503 33.2457C77.5237 35.181 74.833 37.6357 73.5113 40.9872C72.1896 44.3387 72.5672 48.4454 74.4082 51.6081C75.3028 53.0754 76.4355 54.3836 77.7597 55.4789C79.1286 56.6118 80.4503 56.8478 82.1969 56.8006C84.8403 56.8006 88.7111 54.3932 88.0502 51.3249C88.0401 51.2922 88.023 51.2622 88.0002 51.2368C87.9773 51.2113 87.9492 51.1912 87.9177 51.1778C87.8863 51.1643 87.8523 51.1578 87.8182 51.1588C87.784 51.1597 87.7504 51.1681 87.7198 51.1833L83.9907 53.7795L84.3211 53.9211C83.9672 53.0625 83.8009 52.1382 83.8335 51.2101C83.866 50.282 84.0967 49.3715 84.5099 48.5399C84.6515 48.2566 84.2267 48.0206 84.0851 48.3038C83.6346 49.1831 83.3841 50.1511 83.3515 51.1386C83.3188 52.126 83.5048 53.1084 83.8962 54.0156C83.9064 54.0482 83.9234 54.0783 83.9463 54.1037C83.9692 54.1291 83.9973 54.1492 84.0287 54.1627C84.0602 54.1762 84.0941 54.1826 84.1283 54.1817C84.1625 54.1807 84.1961 54.1724 84.2267 54.1572L87.9558 51.5609L87.6254 51.4193C88.003 53.2603 86.0676 55.0068 84.6043 55.8093C83.141 56.6118 80.6864 56.6118 79.2702 55.9509C76.8628 54.7708 74.7386 51.8441 73.8889 49.3423C73.0393 46.8405 72.8977 42.9698 74.4554 40.0431C76.0131 37.1164 78.1845 35.3227 80.6864 33.6705C80.9224 33.4817 80.6864 33.1041 80.4503 33.2457Z" fill="white"/>
<path d="M83.6603 48.9648C83.9436 48.9648 83.9908 48.4928 83.6603 48.4928C83.5977 48.4928 83.5377 48.5177 83.4934 48.5619C83.4492 48.6062 83.4243 48.6662 83.4243 48.7288C83.4243 48.7914 83.4492 48.8514 83.4934 48.8957C83.5377 48.94 83.5977 48.9648 83.6603 48.9648Z" fill="white"/>
<path d="M88.6641 34.9451C87.2479 35.9836 86.2567 37.0221 86.5399 38.8631C86.8231 40.7041 88.0976 43.4419 88.9001 45.7549C89.6975 48.0419 89.7719 50.5189 89.1132 52.8496C88.4545 55.1803 87.0947 57.252 85.2182 58.7833C84.9821 58.9721 85.3126 59.3025 85.5486 59.1137C87.0539 57.8835 88.2455 56.3133 89.0251 54.5324C89.8048 52.7516 90.1502 50.8109 90.033 48.8704C89.8914 46.6518 88.9473 44.7636 88.1448 42.7338C87.7064 41.6474 87.3591 40.5263 87.1063 39.3823C86.7287 37.4942 87.3896 36.4085 88.9001 35.37C89.1361 35.1812 88.9001 34.8035 88.6641 34.9451Z" fill="white"/>
<path d="M86.9646 39.4769C88.026 39.7378 89.1401 39.6887 90.1745 39.3353C90.7409 39.0521 91.7322 38.3912 91.7322 37.6832C91.7329 37.6478 91.7257 37.6127 91.711 37.5805C91.6963 37.5482 91.6745 37.5198 91.6473 37.4971C91.6201 37.4744 91.5882 37.4582 91.5538 37.4495C91.5195 37.4409 91.4837 37.4401 91.449 37.4472H91.4018C91.3074 37.4944 91.213 37.636 91.2602 37.7304C91.2602 37.7678 91.2691 37.8046 91.2861 37.8379C91.3031 37.8712 91.3278 37.9 91.3582 37.9219C91.3885 37.9437 91.4236 37.9581 91.4606 37.9637C91.4976 37.9693 91.5353 37.9661 91.5708 37.9543C91.6063 37.9425 91.6385 37.9224 91.6647 37.8957C91.6908 37.869 91.7103 37.8365 91.7215 37.8008C91.7326 37.7651 91.7351 37.7272 91.7288 37.6904C91.7225 37.6535 91.7074 37.6187 91.685 37.5888L91.5434 37.872L91.2602 37.636C91.2602 38.2496 90.0329 38.8161 89.608 38.9577C88.7915 39.1851 87.9307 39.2013 87.1062 39.0049C86.7758 38.9577 86.6814 39.3825 86.9646 39.4297V39.4769Z" fill="white"/>
<path d="M87.3894 41.0819C89.2303 41.6012 91.921 41.0347 92.7235 39.0993C92.8651 38.8161 92.4402 38.5801 92.3458 38.8633C91.5906 40.6099 89.1831 41.0819 87.531 40.6571C87.2006 40.5627 87.1062 41.0347 87.3894 41.0819Z" fill="white"/>
<path d="M87.956 42.9699C89.8914 43.5836 93.3373 43.1587 93.8565 40.7985C93.869 40.7359 93.8562 40.6709 93.8208 40.6178C93.7854 40.5647 93.7303 40.5278 93.6677 40.5153C93.6051 40.5028 93.5401 40.5156 93.487 40.551C93.4339 40.5865 93.397 40.6415 93.3845 40.7041C92.9124 42.7811 89.7498 43.0171 88.0976 42.5451C88.0677 42.5226 88.0329 42.5076 87.996 42.5013C87.9592 42.495 87.9213 42.4975 87.8856 42.5086C87.8499 42.5198 87.8174 42.5392 87.7907 42.5654C87.764 42.5916 87.7439 42.6238 87.7321 42.6593C87.7203 42.6947 87.717 42.7325 87.7227 42.7695C87.7283 42.8065 87.7427 42.8416 87.7645 42.8719C87.7864 42.9022 87.8151 42.927 87.8484 42.944C87.8817 42.961 87.9186 42.9699 87.956 42.9699Z" fill="white"/>
<path d="M88.6637 44.622C90.5046 45.1413 94.0922 44.9997 94.4698 42.5923C94.517 42.2618 94.0449 42.1674 93.9977 42.4507C93.6673 44.5749 90.363 44.6221 88.8053 44.1972C88.522 44.1028 88.3804 44.5748 88.6637 44.622Z" fill="white"/>
<path d="M89.3248 46.6047C91.4018 47.5488 94.5173 47.3127 95.1781 44.7165C95.1969 44.6539 95.1901 44.5864 95.1591 44.5289C95.1281 44.4713 95.0755 44.4285 95.0129 44.4097C94.9503 44.3909 94.8828 44.3978 94.8253 44.4287C94.7678 44.4597 94.7249 44.5123 94.7061 44.5749C94.1397 46.8879 91.3546 46.9823 89.5608 46.1798C89.3248 46.0382 89.0888 46.4631 89.3248 46.6047Z" fill="white"/>
<path d="M89.7494 48.1625C91.4959 48.8705 94.3282 48.8233 95.5083 47.0296C95.6971 46.7936 95.2723 46.5575 95.0834 46.7936C94.0449 48.3985 91.4487 48.3513 89.891 47.6904C89.6077 47.596 89.4661 48.0681 89.7494 48.1625Z" fill="white"/>
<path d="M89.8442 50.6171C91.3075 51.3724 93.9509 51.7972 95.1782 50.3339C95.3671 50.0978 95.0366 49.7674 94.8478 50.0034C93.7621 51.278 91.3547 50.8531 90.0802 50.1923C89.797 50.0506 89.5609 50.4755 89.8442 50.6171Z" fill="white"/>
<path d="M89.6081 52.0333C90.2007 52.6165 90.9616 52.9986 91.7833 53.1257C92.605 53.2527 93.4458 53.1183 94.1869 52.7414C94.4701 52.5997 94.2341 52.1749 93.9508 52.3165C93.3032 52.6521 92.5658 52.7734 91.8447 52.6632C91.1237 52.5529 90.4562 52.2166 89.9385 51.7029C89.7025 51.514 89.372 51.8445 89.6081 52.0333Z" fill="white"/>
<path d="M80.6395 31.4049C84.3686 30.0832 88.4282 29.7527 92.2518 31.0272C96.0753 32.3018 98.5771 34.8508 100.749 38.1551C100.89 38.3911 101.315 38.1551 101.126 37.9191C99.002 34.6148 96.5001 32.0185 92.7238 30.6968C88.9475 29.3751 84.4158 29.5167 80.4979 30.98C80.2147 31.0744 80.3563 31.5465 80.6395 31.4049Z" fill="white"/>
<path d="M82.7162 32.5377C87.9086 30.6495 94.6116 33.1985 97.5855 37.8245C97.7271 38.0606 98.152 37.8245 97.9631 37.5885C94.9421 32.8209 87.9558 30.1303 82.5745 32.0656C82.2913 32.16 82.4329 32.6321 82.7162 32.5377Z" fill="white"/>
<path d="M97.5852 37.7304C97.6797 39.5241 96.6884 41.1291 95.3666 42.262C95.3262 42.3195 95.3086 42.3901 95.3174 42.4599C95.3261 42.5297 95.3605 42.5938 95.4139 42.6396C97.3492 43.9141 100.323 42.8284 100.418 40.3738C100.418 40.3112 100.393 40.2512 100.348 40.2069C100.304 40.1626 100.244 40.1378 100.181 40.1378C100.119 40.1378 100.059 40.1626 100.015 40.2069C99.9703 40.2512 99.9455 40.3112 99.9455 40.3738C99.8511 42.498 97.2548 43.3005 95.6499 42.2148V42.5924C97.066 41.4123 98.1517 39.6185 98.0101 37.7304C97.9629 37.4471 97.4908 37.4471 97.538 37.7304H97.5852Z" fill="white"/>
<path d="M100.04 40.5154C100.442 40.9787 100.934 41.3557 101.485 41.6234C102.037 41.8912 102.638 42.0442 103.25 42.0731C104.761 42.0731 105.563 41.2706 106.271 40.0905C106.309 40.0342 106.322 39.9652 106.309 39.8988C106.296 39.8324 106.257 39.774 106.2 39.7365C106.144 39.6989 106.075 39.6853 106.009 39.6986C105.942 39.7118 105.884 39.751 105.846 39.8073C105.233 40.893 104.572 41.5539 103.25 41.5067C102.718 41.5161 102.19 41.4115 101.701 41.1998C101.213 40.9881 100.775 40.6742 100.418 40.2793C100.276 40.0433 99.8514 40.2793 100.04 40.5154Z" fill="white"/>
<path d="M100.843 38.2496C102.164 39.3353 104.383 40.4682 106.177 40.0906C106.46 39.9962 106.318 39.5713 106.035 39.6185C104.43 39.9962 102.353 38.8633 101.173 37.9192C100.937 37.7304 100.607 38.0608 100.843 38.2496Z" fill="white"/>
<path d="M98.4355 42.9228C97.6803 45.1886 99.5212 46.7936 101.362 47.596C101.645 47.7376 101.881 47.3128 101.598 47.1712C99.9461 46.4631 98.1995 45.0942 98.9076 43.0644C99.002 42.7812 98.5771 42.6396 98.4355 42.9228Z" fill="white"/>
<path d="M102.825 41.9314C103.161 42.8364 103.204 43.8236 102.95 44.7547C102.696 45.6858 102.157 46.5142 101.409 47.1238C101.173 47.3127 101.409 47.7375 101.645 47.5487C102.503 46.8725 103.118 45.9367 103.399 44.8814C103.68 43.8262 103.611 42.7083 103.203 41.6954C103.109 41.4121 102.684 41.6482 102.825 41.9314Z" fill="white"/>
<path d="M99.0014 42.6865C99.1888 43.1657 99.522 43.5739 99.954 43.8535C100.386 44.133 100.895 44.2697 101.409 44.2443C102.636 44.1027 102.778 42.7337 102.683 41.7424C102.636 41.4592 102.164 41.4592 102.211 41.7424C102.259 42.0257 102.259 43.7722 101.22 43.7722C100.839 43.7677 100.468 43.6481 100.157 43.4291C99.845 43.21 99.6068 42.9018 99.4735 42.5449C99.3791 42.2617 98.907 42.4033 99.0014 42.6865Z" fill="white"/>
<path d="M62.1351 59.2082C61.6174 58.3825 60.8423 57.7502 59.9294 57.4089C59.0165 57.0676 58.0167 57.0364 57.0843 57.32L57.3675 57.6505C58.2644 55.7151 60.483 55.1014 62.4655 55.1959C64.4481 55.2903 66.6195 55.9511 67.186 57.7449C67.2332 57.8865 67.3748 57.9809 67.4692 57.9337C72.4256 56.4232 76.91 59.8691 81.1584 61.8989C85.4068 63.9286 88.3807 59.7747 91.7322 58.925L91.4017 58.5946C90.6599 60.4442 89.5149 62.1052 88.0502 63.4566C88.0233 63.4821 88.0028 63.5135 87.9902 63.5484C87.9777 63.5833 87.9736 63.6206 87.9782 63.6574C87.9828 63.6941 87.996 63.7293 88.0167 63.76C88.0374 63.7908 88.0651 63.8162 88.0974 63.8342C89.9384 65.2032 90.2216 68.0354 89.9856 70.1596L90.316 69.9708C88.4751 68.7435 86.9645 67.1385 85.218 65.8168C84.3683 65.2032 84.0851 65.0143 83.0938 65.1088L80.1199 65.3448C76.0132 65.628 71.5288 65.4864 68.1773 62.7013C67.9884 62.5125 67.658 62.7957 67.8468 63.0318C68.7909 64.1647 70.0654 65.9112 69.6878 67.4218L70.0654 67.3273C68.5549 65.628 66.4779 64.2591 65.7698 61.9933C65.7768 61.955 65.7741 61.9156 65.7621 61.8785C65.7501 61.8415 65.7292 61.808 65.7011 61.7811C65.6731 61.7541 65.6388 61.7345 65.6013 61.724C65.5639 61.7135 65.5244 61.7124 65.4864 61.7208C65.4484 61.7293 65.4131 61.747 65.3836 61.7724C65.3541 61.7978 65.3313 61.83 65.3174 61.8664C65.3034 61.9027 65.2986 61.9419 65.3034 61.9805C65.3082 62.0191 65.3225 62.0559 65.345 62.0877C66.0531 64.4951 68.13 65.9112 69.735 67.6578C69.7679 67.6832 69.8059 67.701 69.8464 67.71C69.887 67.7191 69.929 67.7191 69.9695 67.7101C70.0101 67.7011 70.0481 67.6833 70.081 67.6579C70.1139 67.6326 70.1408 67.6003 70.1598 67.5634C70.5847 65.864 69.2157 63.9758 68.1773 62.7013L67.8468 63.0318C70.8679 65.5336 74.7386 66.0056 78.515 65.9112L81.5361 65.7224C82.669 65.628 83.7075 65.2976 84.6515 66.0056C86.5869 67.3746 88.1447 69.0739 90.08 70.3484C90.1151 70.3747 90.1568 70.3907 90.2004 70.3947C90.2441 70.3986 90.288 70.3903 90.3272 70.3707C90.3664 70.3511 90.3994 70.321 90.4224 70.2837C90.4455 70.2464 90.4577 70.2034 90.4577 70.1596C90.6937 67.8466 90.316 64.9199 88.3335 63.4566V63.787C89.8604 62.3854 91.054 60.6595 91.8266 58.7362C91.921 58.5474 91.685 58.4057 91.5434 58.4529C89.5608 58.9722 87.8614 60.1051 86.0677 61.002C85.0944 61.5762 83.9877 61.8855 82.8578 61.8989C81.6305 61.8516 80.4976 61.0964 79.4591 60.5299C75.5883 58.6418 71.7648 56.0927 67.3276 57.4617L67.6108 57.6505C66.9971 55.6679 64.4953 54.9126 62.6544 54.771C60.8134 54.6294 57.9339 55.2431 56.8954 57.4144C56.8454 57.452 56.8123 57.5079 56.8034 57.5699C56.7945 57.6319 56.8107 57.6948 56.8482 57.7449C56.8858 57.795 56.9417 57.8281 57.0037 57.8369C57.0656 57.8458 57.1286 57.8296 57.1787 57.7921C58.0037 57.5342 58.8908 57.5564 59.7019 57.8552C60.513 58.1541 61.2025 58.7127 61.6631 59.4442C61.6786 59.4721 61.6994 59.4967 61.7244 59.5165C61.7494 59.5364 61.778 59.5511 61.8087 59.5599C61.8394 59.5686 61.8715 59.5713 61.9032 59.5676C61.9349 59.564 61.9656 59.5541 61.9935 59.5386C62.0214 59.5231 62.046 59.5023 62.0658 59.4773C62.0856 59.4523 62.1004 59.4237 62.1091 59.393C62.1179 59.3623 62.1205 59.3302 62.1169 59.2985C62.1132 59.2668 62.1034 59.2361 62.0879 59.2082H62.1351Z" fill="white"/>
<path d="M65.1559 62.4181H65.5336V61.946C64.023 61.9932 62.6069 62.5597 61.0964 62.3709L61.3324 62.6069V62.5125C61.3324 62.4499 61.3075 62.3899 61.2633 62.3456C61.219 62.3013 61.159 62.2765 61.0964 62.2765C61.0338 62.2765 60.9737 62.3013 60.9295 62.3456C60.8852 62.3899 60.8604 62.4499 60.8604 62.5125V62.6069C60.8604 62.6695 60.8852 62.7295 60.9295 62.7738C60.9737 62.8181 61.0338 62.8429 61.0964 62.8429C62.6069 63.0317 64.023 62.4653 65.5336 62.4181C65.5962 62.4181 65.6562 62.3932 65.7005 62.349C65.7447 62.3047 65.7696 62.2447 65.7696 62.1821C65.7696 62.1195 65.7447 62.0594 65.7005 62.0152C65.6562 61.9709 65.5962 61.946 65.5336 61.946H65.1559C65.0933 61.946 65.0333 61.9709 64.989 62.0152C64.9448 62.0594 64.9199 62.1195 64.9199 62.1821C64.9199 62.2447 64.9448 62.3047 64.989 62.349C65.0333 62.3932 65.0933 62.4181 65.1559 62.4181Z" fill="white"/>
<path d="M67.0917 57.3675C67.1422 58.235 66.9942 59.1026 66.6588 59.9043C66.3234 60.7059 65.8096 61.4205 65.1563 61.9935C64.9203 62.2295 65.2979 62.56 65.4867 62.3239C66.1808 61.7051 66.7277 60.9388 67.0871 60.0811C67.4464 59.2235 67.6093 58.2963 67.5637 57.3675C67.5637 57.3049 67.5389 57.2449 67.4946 57.2006C67.4503 57.1563 67.3903 57.1315 67.3277 57.1315C67.2651 57.1315 67.2051 57.1563 67.1608 57.2006C67.1166 57.2449 67.0917 57.3049 67.0917 57.3675Z" fill="white"/>
<path d="M69.4517 57.4618C70.9575 57.223 72.3206 56.4321 73.2752 55.2432L72.8976 55.0072C72.7087 55.668 72.5199 56.8482 71.8591 57.2258C71.8223 57.234 71.788 57.251 71.7591 57.2752C71.7301 57.2995 71.7075 57.3303 71.6929 57.3651C71.6784 57.3999 71.6724 57.4377 71.6755 57.4753C71.6785 57.5129 71.6906 57.5492 71.7105 57.5812C71.7305 57.6132 71.7579 57.6399 71.7904 57.6591C71.8228 57.6784 71.8594 57.6895 71.8971 57.6917C71.9347 57.6939 71.9724 57.687 72.0068 57.6717C72.0413 57.6563 72.0715 57.6329 72.0951 57.6034C72.9448 57.1786 73.1336 55.9513 73.3224 55.1016C73.5112 54.2519 73.0864 54.6768 72.9448 54.9128C72.0527 56.0553 70.7472 56.8012 69.31 56.9898C69.0268 57.037 69.1212 57.509 69.4517 57.4618Z" fill="white"/>
<path d="M79.5063 60.6244C80.2167 60.6245 80.9263 60.6718 81.6305 60.766C82.3399 60.8053 83.0515 60.7737 83.7547 60.6716L83.5658 60.294C83.0556 60.8518 82.4027 61.2598 81.6777 61.4741C81.638 61.5038 81.6088 61.5452 81.594 61.5925C81.5792 61.6398 81.5797 61.6905 81.5954 61.7375C81.611 61.7845 81.6411 61.8254 81.6813 61.8544C81.7215 61.8833 81.7698 61.8989 81.8193 61.8989C82.6103 61.6611 83.326 61.222 83.8963 60.6244C83.9359 60.5947 83.9652 60.5532 83.98 60.5059C83.9947 60.4587 83.9942 60.4079 83.9786 60.3609C83.9629 60.3139 83.9329 60.2731 83.8927 60.2441C83.8525 60.2151 83.8042 60.1995 83.7547 60.1995C83.0515 60.3017 82.3399 60.3333 81.6305 60.294C80.9263 60.1998 80.2167 60.1525 79.5063 60.1523C79.4437 60.1523 79.3837 60.1772 79.3394 60.2215C79.2951 60.2657 79.2703 60.3258 79.2703 60.3884C79.2703 60.451 79.2951 60.511 79.3394 60.5553C79.3837 60.5995 79.4437 60.6244 79.5063 60.6244Z" fill="white"/>
<path d="M69.0271 57.5559C69.9712 59.0664 67.7054 59.208 67.139 59.2552C66.5725 59.3024 66.8085 59.6329 67.0446 59.7273C68.9327 60.4825 68.1303 62.89 66.2893 62.7012C65.9589 62.6539 66.0061 63.126 66.2893 63.1732C66.5435 63.2321 66.8067 63.2403 67.0641 63.1975C67.3214 63.1546 67.5678 63.0615 67.7892 62.9234C68.0105 62.7854 68.2025 62.605 68.3542 62.3928C68.5058 62.1805 68.6142 61.9404 68.6731 61.6863C68.732 61.4321 68.7403 61.1688 68.6974 60.9115C68.6545 60.6541 68.5614 60.4078 68.4234 60.1864C68.2853 59.965 68.105 59.773 67.8927 59.6214C67.6804 59.4697 67.4403 59.3613 67.1862 59.3024V59.7273C68.4135 59.6329 70.4905 58.9248 69.4992 57.3199C69.3104 57.0366 68.8855 57.2727 69.0743 57.5559H69.0271Z" fill="white"/>
<path d="M69.2159 58.9722C69.3783 59.1375 69.4977 59.3402 69.5635 59.5624C69.6293 59.7846 69.6396 60.0196 69.5935 60.2467C69.4519 60.8132 69.027 61.002 68.4606 61.0492C67.8941 61.0964 68.1774 61.5684 68.4606 61.5212C68.7438 61.474 69.7823 61.238 70.0183 60.5299C70.1239 60.2025 70.1357 59.8521 70.0522 59.5184C69.9688 59.1846 69.7935 58.881 69.5463 58.6418C69.526 58.6147 69.5001 58.5923 69.4704 58.5761C69.4407 58.56 69.4079 58.5504 69.3742 58.548C69.3405 58.5456 69.3066 58.5504 69.2749 58.5623C69.2433 58.5741 69.2145 58.5926 69.1906 58.6165C69.1667 58.6404 69.1482 58.6692 69.1363 58.7008C69.1245 58.7325 69.1196 58.7664 69.122 58.8001C69.1244 58.8338 69.1341 58.8667 69.1502 58.8964C69.1664 58.926 69.1888 58.9519 69.2159 58.9722Z" fill="white"/>
<path d="M71.4814 57.8866C72.0951 58.9723 70.8205 59.6331 69.9709 59.7275C69.9324 59.738 69.8966 59.7565 69.8658 59.7817C69.835 59.807 69.8098 59.8385 69.792 59.8741C69.7742 59.9098 69.7641 59.9488 69.7624 59.9886C69.7607 60.0284 69.7674 60.0681 69.782 60.1052C69.9748 60.3512 70.1096 60.6375 70.1763 60.9429C70.2431 61.2482 70.24 61.5647 70.1674 61.8687C70.0948 62.1727 69.9545 62.4564 69.757 62.6987C69.5596 62.9409 69.3099 63.1355 69.0268 63.2678C68.7436 63.4095 68.9796 63.7871 69.2628 63.6455C69.6014 63.4884 69.9005 63.2575 70.1382 62.9698C70.376 62.6822 70.5464 62.3449 70.6369 61.9828C70.7274 61.6207 70.7358 61.243 70.6614 60.8773C70.587 60.5115 70.4317 60.1671 70.2069 59.8691L69.9709 60.1996C71.2926 60.0579 72.6615 59.0667 71.9062 57.6033C71.7646 57.3673 71.3398 57.6033 71.4814 57.8866Z" fill="white"/>
<path d="M71.6233 59.3025C72.2842 60.1994 71.9065 61.6155 70.632 61.5211C70.5694 61.5211 70.5094 61.546 70.4651 61.5903C70.4209 61.6345 70.396 61.6946 70.396 61.7572C70.396 61.8198 70.4209 61.8798 70.4651 61.9241C70.5094 61.9683 70.5694 61.9932 70.632 61.9932C72.2842 62.1348 72.8978 60.2466 72.0481 59.0665C71.8593 58.8305 71.4345 59.0665 71.6233 59.3025Z" fill="white"/>
<path d="M70.4902 62.182C70.6594 62.2907 70.8016 62.4366 70.9059 62.6086C71.0102 62.7805 71.0738 62.974 71.0921 63.1743C71.1103 63.3746 71.0825 63.5765 71.0109 63.7644C70.9394 63.9524 70.8258 64.1215 70.679 64.259C70.4902 64.495 70.8206 64.8254 71.0094 64.5894C71.2016 64.3966 71.3487 64.1636 71.4401 63.9071C71.5314 63.6507 71.5647 63.3772 71.5376 63.1063C71.5106 62.8354 71.4237 62.5739 71.2834 62.3406C71.1431 62.1073 70.9528 61.908 70.7262 61.7571C70.443 61.5683 70.2069 61.9932 70.4902 62.182Z" fill="white"/>
<path d="M73.5583 58.1697C73.5575 58.5417 73.4313 58.9025 73.2 59.1937C72.9687 59.485 72.6459 59.6897 72.2838 59.7747C72.1422 59.7747 72.0478 60.0579 72.1894 60.1523C73.2751 61.0492 73.4167 63.5982 71.4813 63.3622C71.2453 63.315 71.1509 63.6926 71.3397 63.787C71.5539 63.8798 71.7428 64.0225 71.8906 64.2032C72.0384 64.3838 72.1408 64.5972 72.1894 64.8255C72.1894 64.8881 72.2142 64.9482 72.2585 64.9924C72.3028 65.0367 72.3628 65.0616 72.4254 65.0616C72.488 65.0616 72.548 65.0367 72.5923 64.9924C72.6366 64.9482 72.6614 64.8881 72.6614 64.8255C72.6614 64.0703 72.1894 63.7398 71.5757 63.4094L71.4813 63.8342C73.8415 64.0703 73.9831 61.002 72.5198 59.8219L72.4254 60.1995C72.8963 60.1189 73.3207 59.867 73.617 59.4923C73.9133 59.1176 74.0605 58.6465 74.0303 58.1697C74.0303 58.1071 74.0055 58.0471 73.9612 58.0028C73.9169 57.9586 73.8569 57.9337 73.7943 57.9337C73.7317 57.9337 73.6717 57.9586 73.6274 58.0028C73.5832 58.0471 73.5583 58.1071 73.5583 58.1697Z" fill="white"/>
<path d="M74.8805 58.878C75.0215 59.1462 75.0942 59.4449 75.0922 59.7479C75.0901 60.0509 75.0132 60.3486 74.8685 60.6148C74.7237 60.8809 74.5155 61.1072 74.2624 61.2736C74.0092 61.44 73.7189 61.5414 73.4171 61.5687C73.3714 61.577 73.3291 61.5985 73.2956 61.6308C73.2621 61.663 73.2388 61.7044 73.2288 61.7497C73.2187 61.7951 73.2222 61.8424 73.2389 61.8858C73.2557 61.9292 73.2848 61.9667 73.3227 61.9935C74.0308 62.8432 74.5972 64.0705 73.6532 65.0146C73.4643 65.2506 73.7948 65.581 73.9836 65.345C75.1165 64.2121 74.55 62.7488 73.6532 61.6631L73.5115 62.0407C73.8852 61.9941 74.2419 61.857 74.5505 61.6412C74.8591 61.4255 75.1104 61.1376 75.2825 60.8027C75.4547 60.4678 75.5424 60.0959 75.5381 59.7193C75.5339 59.3428 75.4378 58.973 75.2581 58.642C75.1165 58.3588 74.7389 58.5948 74.8805 58.878Z" fill="white"/>
<path d="M74.7858 61.3796C75.3051 62.0405 75.1635 62.7485 74.4082 63.4566C73.6529 64.1647 74.1722 63.8342 74.4082 63.8814L75.1634 65.4864C75.1162 65.628 75.1635 65.864 75.3523 65.8168C77.1932 65.628 77.5709 62.7013 75.7299 62.1821L75.8243 62.5597C76.7684 61.6156 77.2404 59.8219 75.4467 59.633L75.6355 60.0579C76.1075 59.633 76.3436 59.3498 76.2019 58.7362L75.8243 58.9722C76.0131 59.161 77.2876 60.1995 76.4852 60.5299C75.6827 60.8604 76.3436 60.9076 76.5324 61.002C77.6653 61.5212 77.6653 62.1821 76.5796 63.0317C76.3908 63.0789 76.3436 63.4094 76.5796 63.4566C76.8156 63.5038 77.5709 63.9758 77.4293 64.6839C77.5398 64.8399 77.591 65.0302 77.5737 65.2206C77.5564 65.411 77.4717 65.5889 77.3348 65.7224C77.146 65.9584 77.5709 66.1944 77.7597 65.9584C77.9501 65.7144 78.076 65.4262 78.1255 65.1207C78.1751 64.8151 78.1468 64.5019 78.0433 64.2102C77.9398 63.9184 77.7644 63.6575 77.5333 63.4515C77.3022 63.2456 77.0229 63.1012 76.7212 63.0317V63.4566C77.044 63.3635 77.3265 63.1654 77.5241 62.8938C77.7217 62.6221 77.8231 62.2923 77.8122 61.9565C77.8014 61.6208 77.679 61.2982 77.4643 61.0398C77.2496 60.7815 76.9549 60.602 76.6268 60.5299L76.7212 60.9548C78.0429 60.3883 76.674 59.2082 76.1547 58.6418C75.6355 58.0753 75.7299 58.6418 75.7771 58.8778C75.7664 59.0456 75.7185 59.2088 75.6368 59.3558C75.5552 59.5028 75.4419 59.6297 75.3051 59.7274C75.2803 59.7367 75.2575 59.7508 75.2382 59.7689C75.2188 59.787 75.2032 59.8087 75.1923 59.8328C75.1813 59.8569 75.1752 59.883 75.1743 59.9094C75.1734 59.9359 75.1778 59.9623 75.187 59.9871C75.1963 60.0119 75.2104 60.0346 75.2285 60.0539C75.2466 60.0733 75.2683 60.0889 75.2924 60.0998C75.3165 60.1108 75.3426 60.1169 75.369 60.1178C75.3955 60.1187 75.4219 60.1144 75.4467 60.1051C76.1075 61.002 76.1547 61.71 75.4939 62.2293C75.4689 62.2611 75.4525 62.2989 75.4463 62.339C75.4401 62.379 75.4443 62.42 75.4585 62.4579C75.4728 62.4958 75.4965 62.5295 75.5275 62.5556C75.5585 62.5817 75.5957 62.5993 75.6355 62.6069C77.0044 63.0317 76.5796 65.2031 75.3523 65.3448L75.5883 65.7224C75.7146 65.5119 75.7877 65.2738 75.8013 65.0287C75.8149 64.7836 75.7685 64.5389 75.6662 64.3158C75.564 64.0926 75.4088 63.8978 75.2143 63.7481C75.0198 63.5984 74.7917 63.4983 74.5498 63.4566V63.8814C75.7771 63.4094 75.7771 62.1349 75.1634 61.1436C75.1552 61.1068 75.1382 61.0725 75.114 61.0436C75.0898 61.0147 75.059 60.992 75.0242 60.9774C74.9893 60.9629 74.9516 60.9569 74.914 60.96C74.8764 60.963 74.84 60.9751 74.8081 60.9951C74.7761 61.0151 74.7493 61.0424 74.7301 61.0749C74.7109 61.1073 74.6997 61.1439 74.6975 61.1816C74.6953 61.2192 74.7022 61.2569 74.7176 61.2913C74.7329 61.3258 74.7563 61.356 74.7858 61.3796Z" fill="white"/>
<path d="M77.7125 62.0404C78.0409 62.2016 78.3066 62.4672 78.4678 62.7956C78.7038 63.3149 78.751 64.0702 78.1373 64.259C77.5237 64.4478 77.9957 64.8254 78.279 64.731C79.7423 64.1646 79.0342 62.2292 77.9485 61.6155C77.7125 61.4739 77.4765 61.8988 77.7125 62.0404Z" fill="white"/>
<path d="M77.6651 62.0405C78.0373 61.9066 78.3547 61.6536 78.5682 61.3206C78.7816 60.9877 78.879 60.5936 78.8452 60.1995C78.8452 60.1369 78.8204 60.0769 78.7761 60.0326C78.7319 59.9884 78.6718 59.9635 78.6092 59.9635C78.5466 59.9635 78.4866 59.9884 78.4423 60.0326C78.3981 60.0769 78.3732 60.1369 78.3732 60.1995C78.4023 60.4894 78.3347 60.7809 78.1811 61.0284C78.0274 61.276 77.7962 61.4658 77.5235 61.5685C77.2403 61.6629 77.3819 62.1349 77.6651 62.0405Z" fill="white"/>
<path d="M78.3735 60.3411C78.9399 60.8603 79.9312 62.0877 78.6567 62.7013C78.6266 62.7279 78.6024 62.7606 78.5859 62.7972C78.5693 62.8338 78.5608 62.8735 78.5608 62.9137C78.5608 62.9539 78.5693 62.9936 78.5859 63.0303C78.6024 63.0669 78.6266 63.0996 78.6567 63.1261C79.6008 63.551 80.4977 64.8255 79.2231 65.6752C78.9399 65.8168 79.1759 66.2416 79.4592 66.1C80.8753 65.1559 80.2616 63.3622 78.8927 62.7013V63.1261C80.356 62.4181 79.5536 60.8131 78.7039 60.0107C78.6836 59.9836 78.6577 59.9612 78.6281 59.945C78.5984 59.9289 78.5655 59.9193 78.5318 59.9169C78.4981 59.9145 78.4642 59.9193 78.4325 59.9312C78.4009 59.943 78.3721 59.9615 78.3482 59.9854C78.3243 60.0093 78.3058 60.0381 78.294 60.0698C78.2821 60.1014 78.2772 60.1353 78.2796 60.169C78.282 60.2027 78.2917 60.2356 78.3079 60.2653C78.324 60.2949 78.3464 60.3208 78.3735 60.3411Z" fill="white"/>
<path d="M78.1378 64.8258C78.2322 64.873 78.893 65.3922 78.7986 65.5338C78.7042 65.6755 79.0818 66.0059 79.2235 65.7699C79.3651 65.5338 78.7986 64.7786 78.4682 64.4953C78.1378 64.2121 77.9489 64.5898 78.1378 64.8258Z" fill="white"/>
<path d="M79.4589 60.9074C80.1197 61.5211 81.2054 62.7956 80.0725 63.5509C80.0343 63.5743 80.0035 63.6081 79.9837 63.6484C79.964 63.6886 79.9561 63.7337 79.9611 63.7783C79.966 63.8229 79.9836 63.8651 80.0117 63.9001C80.0398 63.9351 80.0773 63.9613 80.1197 63.9757C80.4767 64.0729 80.7892 64.2904 81.0042 64.5915C81.2193 64.8925 81.3237 65.2586 81.2998 65.6279C81.2998 65.6905 81.3247 65.7505 81.369 65.7948C81.4132 65.839 81.4733 65.8639 81.5359 65.8639C81.5985 65.8639 81.6585 65.839 81.7028 65.7948C81.747 65.7505 81.7719 65.6905 81.7719 65.6279C81.8073 65.1464 81.6699 64.6681 81.3844 64.2788C81.0989 63.8894 80.684 63.6146 80.2142 63.5037L80.3086 63.9285C81.7247 63.0316 80.7334 61.4267 79.7893 60.577C79.5533 60.3882 79.2229 60.7186 79.4589 60.9074Z" fill="white"/>
<path d="M81.064 62.4653C81.2528 62.3709 81.7248 62.5597 81.8664 62.6541C82.015 62.7137 82.1408 62.819 82.2256 62.9548C82.3105 63.0905 82.35 63.2497 82.3385 63.4094C82.3115 63.6707 82.2073 63.918 82.0391 64.1198C81.871 64.3215 81.6465 64.4686 81.3944 64.5423C81.3318 64.5611 81.2792 64.604 81.2482 64.6615C81.2173 64.719 81.2104 64.7865 81.2292 64.8491C81.248 64.9117 81.2908 64.9643 81.3484 64.9953C81.4059 65.0263 81.4734 65.0331 81.536 65.0143C81.9483 64.9033 82.3056 64.6451 82.5405 64.2885C82.7753 63.9319 82.8714 63.5016 82.8105 63.079C82.7491 62.8733 82.6402 62.685 82.4926 62.5292C82.345 62.3734 82.1629 62.2545 81.9608 62.1821C81.6304 62.0405 81.1584 61.8517 80.8279 62.0877C80.7911 62.0959 80.7568 62.1129 80.7279 62.1371C80.699 62.1614 80.6763 62.1922 80.6618 62.227C80.6473 62.2618 80.6413 62.2996 80.6443 62.3372C80.6474 62.3748 80.6594 62.4111 80.6794 62.4431C80.6994 62.4751 80.7268 62.5018 80.7592 62.521C80.7917 62.5403 80.8283 62.5514 80.866 62.5536C80.9036 62.5558 80.9412 62.5489 80.9757 62.5335C81.0101 62.5182 81.0404 62.4948 81.064 62.4653Z" fill="white"/>
<path d="M64.8362 58.9706C65.3391 58.556 65.3973 57.7959 64.9661 57.2729C64.535 56.7499 63.7778 56.6619 63.2749 57.0765C62.7719 57.4911 62.7138 58.2511 63.1449 58.7742C63.5761 59.2972 64.3333 59.3851 64.8362 58.9706Z" stroke="white" stroke-width="1.15364" stroke-miterlimit="10"/>
<path d="M44.7592 17.2498C45.2017 16.885 45.2513 16.2142 44.8699 15.7515C44.4885 15.2888 43.8205 15.2095 43.378 15.5743C42.9354 15.9391 42.8858 16.6099 43.2672 17.0726C43.6486 17.5353 44.3166 17.6146 44.7592 17.2498Z" stroke="white" stroke-miterlimit="10"/>
<path d="M60.5955 17.4045C61.0984 16.9899 61.1566 16.2299 60.7254 15.7069C60.2943 15.1838 59.537 15.0959 59.0341 15.5105C58.5312 15.925 58.4731 16.6851 58.9042 17.2081C59.3354 17.7312 60.0926 17.8191 60.5955 17.4045Z" stroke="white" stroke-width="1.15364" stroke-miterlimit="10"/>
<path d="M75.1636 17.655C75.6665 17.2404 75.7247 16.4804 75.2935 15.9573C74.8624 15.4343 74.1052 15.3464 73.6022 15.761C73.0993 16.1755 73.0412 16.9356 73.4723 17.4586C73.9035 17.9817 74.6607 18.0696 75.1636 17.655Z" stroke="white" stroke-width="1.15364" stroke-miterlimit="10"/>
<path d="M66.7138 10.3049C66.525 12.4763 62.7958 11.6266 62.7014 9.78567C62.607 7.9447 63.5039 7.47266 64.2592 6.57578C65.3773 5.39179 66.216 3.97238 66.7138 2.4218H66.2417C67.3746 4.02675 68.4603 5.63169 69.4988 7.28384C69.9237 8.03911 70.4429 8.84158 70.4429 9.73846C70.4444 10.1532 70.2899 10.5533 70.0101 10.8594C69.7303 11.1654 69.3456 11.3551 68.9324 11.3906C68.0827 11.5322 67.4218 10.8714 67.0442 10.2105C66.6666 9.54964 66.4778 10.2105 66.6194 10.4465C66.761 10.6825 67.9883 12.0043 69.074 11.8627C69.5283 11.8223 69.9547 11.6265 70.2814 11.3083C70.6082 10.9902 70.8153 10.5691 70.8678 10.1161C71.0566 8.98319 70.4429 7.9447 69.8765 7.04782C68.8852 5.39567 67.7995 3.79073 66.6666 2.18578C66.5722 2.04417 66.2889 2.04417 66.2417 2.23299C65.7225 4.30998 64.3064 5.49008 63.1735 7.14223C62.0406 8.79438 61.9461 9.36083 62.4182 10.5409C63.1263 12.4763 66.997 12.5707 67.1858 10.2577C67.1858 10.1951 67.161 10.1351 67.1167 10.0908C67.0724 10.0466 67.0124 10.0217 66.9498 10.0217C66.8872 10.0217 66.8272 10.0466 66.7829 10.0908C66.7387 10.1351 66.7138 10.1951 66.7138 10.2577V10.3049Z" fill="white"/>
<path d="M69.9238 6.85872C72.0008 5.15937 74.2666 3.55442 76.8629 2.79915C79.4591 2.04389 82.433 2.37432 85.0292 3.88485C85.9178 4.47158 86.9318 4.84134 87.9895 4.96433C89.0472 5.08732 90.119 4.9601 91.1185 4.59292C92.9123 4.02647 94.8477 3.2712 95.8862 1.57185L95.4141 1.38303C94.8477 4.4041 92.6763 7.33076 89.2776 6.90592C88.9944 6.85872 88.9471 7.23636 89.136 7.33077C90.4577 8.18044 89.0888 10.8239 88.4751 11.6736C88.032 12.3514 87.4082 12.8918 86.6742 13.2338C85.9401 13.5758 85.1251 13.7057 84.3211 13.6089L84.4155 14.081C85.9261 13.4201 86.3981 10.8711 86.4453 9.40775C86.4925 7.94442 85.3596 6.10346 83.6131 5.34819C78.8454 3.36561 74.2194 5.72582 70.3487 8.51087L70.6319 8.88851L71.1511 8.46367C71.1782 8.44338 71.2006 8.41751 71.2168 8.38782C71.2329 8.35813 71.2426 8.32531 71.245 8.29158C71.2474 8.25785 71.2425 8.224 71.2307 8.19232C71.2188 8.16064 71.2003 8.13187 71.1764 8.10796C71.1525 8.08404 71.1237 8.06555 71.0921 8.05373C71.0604 8.0419 71.0265 8.03702 70.9928 8.03942C70.9591 8.04182 70.9262 8.05143 70.8966 8.06762C70.8669 8.08381 70.841 8.10618 70.8207 8.13324L70.3015 8.55807C70.1127 8.74689 70.3959 9.07732 70.5847 8.93571C73.7474 6.6699 77.0989 4.64012 81.1112 5.20657C82.905 5.4426 85.218 6.15066 85.8317 8.08603C86.4453 10.0214 85.7373 12.9953 84.1795 13.6561C83.9435 13.7505 84.0851 14.081 84.3211 14.081C86.3981 14.3642 88.2863 13.1369 89.2776 11.2959C90.2689 9.45496 90.7881 7.85001 89.372 6.95313L89.2776 7.37797C92.8651 7.85001 95.2725 4.73453 95.8862 1.52464C95.8996 1.47078 95.8936 1.41391 95.8692 1.36403C95.8449 1.31415 95.8037 1.27445 95.753 1.25191C95.7023 1.22936 95.6452 1.22542 95.5919 1.24077C95.5386 1.25612 95.4923 1.28977 95.4613 1.33583C94.234 3.36561 90.9297 4.54571 88.6167 4.59292C86.3037 4.64012 84.1323 2.42152 81.5833 1.94948C77.0517 1.19421 72.9921 3.79045 69.5934 6.5283C69.3574 6.71711 69.6878 7.04754 69.9238 6.85872Z" fill="white"/>
<path d="M89.7972 10.2575C91.1661 11.0128 92.9127 12.0985 94.5177 11.768C94.5552 11.768 94.5912 11.7531 94.6178 11.7266C94.6444 11.7 94.6593 11.664 94.6593 11.6264C94.8436 10.6528 94.8255 9.65159 94.6062 8.68521C94.387 7.71882 93.9712 6.8079 93.3848 6.00911C93.2903 5.8675 93.1959 5.8675 93.0543 5.91471L92.6295 6.10352C92.3935 6.24513 92.6295 6.62277 92.8655 6.52836L93.2903 6.33954L92.9599 6.24514C93.8779 7.41429 94.3618 8.86578 94.3288 10.3519C94.3288 10.7295 94.2344 11.2488 93.7624 11.3904C93.2903 11.532 92.7711 11.1544 92.4879 11.06C91.6379 10.7177 90.817 10.3073 90.0332 9.83266C89.7972 9.69105 89.5612 10.1159 89.7972 10.2575Z" fill="white"/>
<path d="M64.4954 5.91459C61.616 2.61029 56.7067 0.108466 52.3167 0.722121C51.3429 0.854939 50.4001 1.15855 49.5317 1.619C48.3044 2.27986 47.2187 3.17674 45.8025 3.36556C44.3864 3.55437 42.8759 3.08233 41.5542 2.56308C40.2324 2.04384 38.9579 1.38298 38.2027 0.108464C38.061 -0.127557 37.6834 0.0612573 37.7306 0.297279C38.3443 3.55437 40.7517 6.62265 44.3864 6.19781L44.2448 5.72577C42.8287 6.66985 43.7256 8.93566 44.3392 10.1158C44.7933 11.0319 45.5148 11.7886 46.4082 12.2859C47.3016 12.7832 48.325 12.9976 49.3429 12.9008C49.5317 12.9008 49.7205 12.5704 49.4373 12.476C49.1541 12.3816 48.3044 11.0598 48.0684 10.2102C47.8323 9.3605 47.4547 7.99157 47.7851 6.90588C48.3988 4.9233 50.7118 4.21523 52.5056 3.97921C56.5651 3.45997 59.9166 5.44254 63.0321 7.75555C63.2681 7.89717 63.5041 7.51953 63.3153 7.37792L62.7961 6.90588C62.5601 6.71706 62.2296 7.04749 62.4657 7.23631L62.9849 7.70835L63.2681 7.33072C59.3974 4.49846 54.8186 2.13825 50.0037 4.16803C48.3516 4.8761 47.1715 6.15061 47.1715 7.99157C47.1715 9.83254 47.6907 12.1928 49.2013 12.8536L49.3429 12.4288C48.5328 12.5184 47.7137 12.3855 46.9735 12.0446C46.2333 11.7036 45.6 11.1673 45.1417 10.4934C44.528 9.64373 43.2063 7.00029 44.4808 6.15061C44.6696 6.0562 44.6224 5.67856 44.3864 5.72577C40.9405 6.15061 38.7691 3.22394 38.2027 0.202872L37.7778 0.344486C38.8163 2.13825 40.8461 2.89352 42.7343 3.45997C43.7465 3.8228 44.8277 3.95189 45.897 3.8376C47.0771 3.64878 48.0683 2.98792 49.1068 2.42147C54.1105 -0.505194 60.5775 2.13825 64.165 6.24502C64.3538 6.48104 64.6843 6.10341 64.4954 5.91459Z" fill="white"/>
<path d="M67.0918 10.3047C66.2422 9.87984 65.8173 9.26618 66.2894 8.3693C66.7614 7.47242 66.8086 7.51962 66.9974 7.04758H66.5726C66.8868 7.44941 67.1412 7.8946 67.3279 8.3693C67.4205 8.69084 67.4162 9.0326 67.3155 9.3517C67.2147 9.67081 67.022 9.95306 66.7614 10.1631C66.7344 10.1834 66.712 10.2092 66.6958 10.2389C66.6796 10.2686 66.67 10.3014 66.6676 10.3351C66.6652 10.3689 66.6701 10.4027 66.6819 10.4344C66.6937 10.4661 66.7122 10.4949 66.7361 10.5188C66.76 10.5427 66.7888 10.5612 66.8205 10.573C66.8522 10.5848 66.886 10.5897 66.9198 10.5873C66.9535 10.5849 66.9863 10.5753 67.016 10.5591C67.0457 10.5429 67.0716 10.5205 67.0918 10.4935C67.5639 9.97424 67.9415 9.5022 67.8471 8.74693C67.7239 8.04278 67.4324 7.37882 66.9974 6.81156C66.9679 6.77487 66.9297 6.74612 66.8862 6.72792C66.8428 6.70973 66.7955 6.70265 66.7486 6.70734C66.7018 6.71202 66.6568 6.72833 66.6178 6.75477C66.5788 6.78121 66.5471 6.81695 66.5254 6.85876C66.2422 7.66124 65.4397 8.4165 65.5813 9.36059C65.7229 10.3047 66.2894 10.3519 66.8086 10.6351C67.3279 10.9183 67.3279 10.3991 67.0918 10.2575V10.3047Z" fill="white"/>
<path d="M43.9615 9.0302C43.2234 9.45843 42.4495 9.82169 41.6485 10.1159C40.7988 10.4463 39.8075 10.7296 39.8075 9.45504C39.797 7.9724 40.2785 6.52812 41.1764 5.34828H40.846L41.2708 5.53709C41.554 5.6787 41.7901 5.30107 41.5068 5.15945L41.082 4.97064C41.0581 4.95461 41.0308 4.94427 41.0022 4.94042C40.9736 4.93656 40.9446 4.93929 40.9172 4.94841C40.8899 4.95752 40.865 4.97277 40.8445 4.99299C40.824 5.01321 40.8083 5.03785 40.7988 5.06505C40.2054 5.85171 39.7816 6.75286 39.5541 7.71158C39.3267 8.6703 39.3004 9.66577 39.4771 10.6352C39.4757 10.678 39.489 10.7201 39.5147 10.7544C39.5405 10.7887 39.5771 10.8133 39.6187 10.824C41.2236 11.1544 42.8758 10.1159 44.1975 9.36064C44.4807 9.21903 44.2447 8.84139 43.9615 8.983V9.0302Z" fill="white"/>
<path d="M59.0196 60.5773C58.4532 60.1997 58.406 59.3028 58.3588 58.7363L58.0283 58.9251C58.7836 59.3972 59.8221 60.1997 60.7662 60.2941C61.0756 60.3287 61.3873 60.253 61.6464 60.0803C61.9055 59.9076 62.0953 59.6489 62.1823 59.35C62.1823 59.2874 62.1574 59.2273 62.1132 59.1831C62.0689 59.1388 62.0089 59.114 61.9463 59.114C61.8837 59.114 61.8237 59.1388 61.7794 59.1831C61.7351 59.2273 61.7103 59.2874 61.7103 59.35C61.6631 59.7748 60.955 59.8692 60.6246 59.7748C60.3048 59.682 60.002 59.5386 59.7277 59.35C59.2145 59.113 58.7246 58.8285 58.2644 58.5003C58.224 58.4858 58.1809 58.4806 58.1383 58.4851C58.0956 58.4897 58.0546 58.5038 58.0182 58.5266C57.9818 58.5493 57.9511 58.58 57.9283 58.6163C57.9056 58.6526 57.8913 58.6937 57.8867 58.7363C57.9811 59.5388 58.0283 60.4829 58.7836 61.0021C59.5389 61.5214 59.2556 60.7661 59.0196 60.5773Z" fill="white"/>
<path d="M14.0444 84.0905V98.4141H11.2515V89.6364L8.17927 94.9828H7.22168L12.0494 86.644V97.6162H13.2464V84.8884H11.6904L5.90503 94.9828L2.83282 89.6364V98.4141H0V84.0905H2.87271L6.38382 90.195L5.90503 91.0328L2.39393 84.8884H0.837878V97.6162H2.03484V86.644L5.90503 93.347L11.2116 84.0905H14.0444Z" fill="white"/>
<path d="M29.6846 98.4141H26.772L25.4554 94.8631H18.5928L17.5953 97.6162H18.8322L19.4306 95.9404H20.2685L19.3907 98.4141H16.4382L18.0342 94.0253H26.0539L27.3306 97.6162H28.5675L23.8993 84.8884H22.2236L19.5902 92.15H24.4978L23.0614 88.2399L22.064 91.0727H21.1862L23.0614 85.8859L25.6549 92.948H18.4332L21.665 84.0905H24.4978L29.6846 98.4141Z" fill="white"/>
<path d="M41.0161 94.3844C41.0161 97.1773 38.8217 98.6136 35.7894 98.6136C34.0412 98.6123 32.3231 98.1587 30.802 97.297L31.7596 94.7035C33.0762 95.3818 34.4727 95.9404 35.7894 95.9404C37.106 95.9404 38.2232 95.4616 38.2232 94.3844C38.2232 92.549 36.9863 92.0303 35.7495 91.392C34.5126 90.7536 33.3954 90.0354 33.3954 88.1601C33.3954 86.9233 34.2333 85.7662 36.3479 85.7662C37.3392 85.7796 38.317 85.9969 39.2207 86.4046L39.6196 85.2874C38.7818 84.8884 38.1035 84.689 36.3479 84.689C34.5924 84.689 32.1586 85.846 32.1586 88.1601C32.1586 90.4743 33.3156 91.4717 34.8318 92.15L34.5525 92.9081C32.4778 91.9904 31.3606 90.3945 31.3606 88.1601C31.3606 85.9258 33.6747 83.8511 36.3479 83.8511C37.8411 83.7796 39.3233 84.1397 40.6171 84.8884L39.6595 87.4819C38.6481 86.908 37.5105 86.5928 36.3479 86.5642C34.9116 86.5642 34.1934 87.1627 34.1934 88.1601C34.1934 89.1576 35.1111 90.1152 36.1484 90.6738C37.1858 91.2324 39.0212 92.1101 39.0212 94.3844C39.0212 95.2621 38.5823 96.7384 35.7894 96.7384C34.5411 96.6892 33.3173 96.3764 32.1985 95.8207L31.7995 96.898C33.041 97.5071 34.4065 97.8212 35.7894 97.8157C38.0237 97.8157 40.2181 96.9379 40.2181 94.3844C40.2181 91.8308 39.1808 90.7935 36.9065 89.8359L37.1459 89.0778C39.6595 90.1152 41.0161 91.751 41.0161 94.3844Z" fill="white"/>
<path d="M55.0208 84.0905V98.4141H52.2279V92.2298H44.9264V97.6162H46.1234V93.3071H46.9612V98.4141H44.1284V91.4318H53.0259V97.6162H54.2228V84.8884H53.0259V90.3546H44.1284V84.0905H46.9612V88.4394H46.1234V84.8884H44.9264V89.5167H52.2279V84.0905H55.0208Z" fill="white"/>
<path d="M67.9477 84.0905V86.7637H65.4341V85.9657H67.1497V84.8884H64.2371V98.4141H61.4043V84.8884H58.4917V85.9657H60.2073V86.7637H57.6538V84.0905H62.2023V97.6162H63.4391V84.0905H67.9477Z" fill="white"/>
<path d="M82.2316 91.2324C82.2316 95.2621 79.9573 98.6136 75.9275 98.6136C71.8978 98.6136 69.6235 95.2621 69.6235 91.2324C69.6235 87.2026 71.9377 83.8511 75.9275 83.8511H76.3265V85.7263C78.9998 86.0056 80.2366 88.6788 80.2366 91.1925C80.2366 93.7061 78.8801 96.6985 75.9275 96.6985C72.975 96.6985 71.6584 93.8258 71.6584 91.1925C71.6584 88.5591 72.4962 86.8834 74.3316 86.0455V86.9632C72.975 87.8011 72.4563 89.6763 72.4563 91.1925C72.4563 92.7086 73.374 95.9005 75.9275 95.9005C78.4811 95.9005 79.4386 93.2273 79.4386 91.1925C79.4386 89.1576 78.4811 86.5243 75.9275 86.5243H75.5286V84.6091C72.0175 84.8485 70.4614 88.0005 70.4614 91.1526C70.4614 94.3046 72.1372 97.7359 75.9275 97.7359C79.7179 97.7359 81.4336 94.4243 81.4336 91.1526C81.4336 87.8809 80.2366 85.6066 77.5634 84.8086V83.9708C80.5558 84.8485 82.2316 87.8011 82.2316 91.2324Z" fill="white"/>
<path d="M94.919 95.701V98.4141H84.3857V96.2596L90.1711 87.8409H91.1286L85.1837 96.499V97.6162H94.1211V96.5389H86.5802L93.2433 86.7637H84.9842V84.0905H94.7993V84.8884H85.7822V85.9657H94.7594L88.0963 95.701H94.919Z" fill="white"/>
<path d="M100.226 97.217C100.225 97.5087 100.143 97.7942 99.9875 98.0411C99.8323 98.288 99.6109 98.4864 99.3484 98.6135L98.9893 97.8953C99.122 97.8393 99.2349 97.7447 99.3131 97.6237C99.3914 97.5028 99.4315 97.3611 99.4282 97.217C99.4548 97.1002 99.4548 96.9788 99.4281 96.862C99.4014 96.7451 99.3487 96.6358 99.274 96.5421C99.1992 96.4484 99.1043 96.3727 98.9963 96.3207C98.8883 96.2687 98.77 96.2417 98.6502 96.2417C98.5303 96.2417 98.412 96.2687 98.304 96.3207C98.196 96.3727 98.1011 96.4484 98.0263 96.5421C97.9516 96.6358 97.8989 96.7451 97.8722 96.862C97.8455 96.9788 97.8455 97.1002 97.8721 97.217C97.8688 97.3611 97.9089 97.5028 97.9872 97.6237C98.0654 97.7447 98.1783 97.8393 98.311 97.8953L97.9519 98.6135C97.6895 98.4864 97.468 98.288 97.3128 98.0411C97.1576 97.7942 97.0749 97.5087 97.0741 97.217C97.0378 96.989 97.0513 96.7559 97.1137 96.5336C97.1762 96.3114 97.2861 96.1053 97.436 95.9297C97.5858 95.7541 97.7719 95.613 97.9816 95.5163C98.1912 95.4196 98.4193 95.3695 98.6502 95.3695C98.881 95.3695 99.1091 95.4196 99.3187 95.5163C99.5284 95.613 99.7145 95.7541 99.8644 95.9297C100.014 96.1053 100.124 96.3114 100.187 96.5336C100.249 96.7559 100.263 96.989 100.226 97.217Z" fill="white"/>
<path d="M114.988 91.2324C114.988 95.2621 112.714 98.6136 108.684 98.6136C104.655 98.6136 102.38 95.2621 102.38 91.2324C102.38 87.2026 104.655 83.8511 108.684 83.8511H109.083V85.7263C111.757 86.0056 112.993 88.6788 112.993 91.1925C112.993 93.7061 111.637 96.6985 108.684 96.6985C105.732 96.6985 104.415 93.8258 104.415 91.1925C104.415 88.5591 105.253 86.8834 107.088 86.0455V86.9632C105.732 87.8011 105.213 89.6763 105.213 91.1925C105.213 92.7086 106.131 95.9005 108.684 95.9005C111.238 95.9005 112.195 93.2273 112.195 91.1925C112.195 89.1576 111.238 86.5243 108.684 86.5243H108.285V84.6091C104.774 84.8485 103.178 88.0005 103.178 91.1526C103.178 94.3046 104.894 97.7359 108.684 97.7359C112.475 97.7359 114.19 94.4243 114.19 91.1526C114.19 87.8809 112.954 85.6066 110.28 84.8086V83.9708C113.313 84.8485 114.988 87.8011 114.988 91.2324Z" fill="white"/>
<path d="M128.195 88.6389C128.195 90.3546 127.437 91.7909 126.081 92.549L125.642 91.8707C126.839 91.1924 127.397 90.0753 127.397 88.6389C127.397 86.3248 125.682 84.8884 123.048 84.8884H118.899V97.6162H120.096V90.6339H120.934L126.081 97.6162H127.477L122.33 90.6339H123.088C124.884 90.6339 125.362 89.7162 125.362 88.6389C125.362 87.5616 124.525 86.7637 123.208 86.7637H120.934V89.5566H120.096V85.9657H123.208C125.003 85.9657 126.2 87.0031 126.2 88.6389C126.245 89.308 126.029 89.9684 125.598 90.4817C125.166 90.995 124.553 91.3212 123.886 91.3919L129.073 98.4141H125.642L120.934 91.9505V98.4141H118.101V84.0905H123.048C126.36 84.0905 128.195 86.0854 128.195 88.6389Z" fill="white"/>
<path d="M137.531 91.3122V92.4293H142V97.0975C140.577 98.1011 138.874 98.6315 137.132 98.6136C133.023 98.6136 130.828 95.2621 130.828 91.2324V91.1127C130.828 87.442 133.063 83.8511 137.013 83.8511C138.608 83.8186 140.169 84.3246 141.441 85.2874L140.085 87.6814C139.087 87.0031 138.449 86.5642 137.053 86.5642C134.738 86.5642 133.661 89.0778 133.661 91.1127V91.2324C133.661 93.3869 134.539 95.9404 137.092 95.9404C137.816 95.9437 138.534 95.8083 139.207 95.5414V94.3046H140.005V96.0601L139.606 96.2596C138.81 96.5905 137.954 96.7535 137.092 96.7384C134.18 96.7384 132.823 94.0253 132.823 91.2324V91.1127C132.823 88.5192 134.339 85.7662 137.053 85.7662C138.026 85.733 138.986 85.9975 139.806 86.5243L140.364 85.5268C139.35 84.9328 138.187 84.642 137.013 84.689C133.502 84.689 131.626 87.9208 131.626 91.1127V91.2324C131.626 94.6238 133.382 97.8157 137.132 97.8157C138.572 97.8308 139.986 97.4289 141.202 96.6586V93.2273H136.733V90.5142H142V91.3122H137.531Z" fill="white"/>
</svg>
